<?xml version="1.0" ?><!DOCTYPE svg  PUBLIC '-//W3C//DTD SVG 1.1//EN'  'http://www.w3.org/Graphics/SVG/1.1/DTD/svg11.dtd'><svg enable-background="new 0 0 50 50" id="Layer_1" version="1.1" viewBox="0 0 50 50" xml:space="preserve" xmlns="http://www.w3.org/2000/svg" xmlns:xlink="http://www.w3.org/1999/xlink"><path d="M45,1H5C2.8,1,1,2.8,1,5v40c0,2.2,1.8,4,4,4h40c2.2,0,4-1.8,4-4V5C49,2.8,47.2,1,45,1z" fill="#E13719"/><g id="G_x2B_"><polygon fill="#FFFFFF" id="_x2B__1_" points="40,23 36,23 36,19 34,19 34,23 30,23 30,25 34,25 34,29 36,29 36,25 40,25  "/><path d="M25,27c0,0-2-1.2-2-2c0,0-0.5-1.8,1-3c1.5-1.2,3-3,3-5c0-2.3-1-5-3-6h3l2.4-1c0,0-7.1,0-9.4,0   c-4.2,0-8,3.3-8,7c0,3.7,2.8,6.6,7.1,6.6c0.3,0,0.6,0,0.9,0c-0.3,0.5-0.5,1.1-0.5,1.7c0,1,0.8,2,1.5,2.7c-0.5,0-1.4,0-2,0   c-5.2,0-9,2.6-9,6c0,3.4,4.9,6,10,6c5.9,0,10-3,10-7C30,30.3,27.5,28.7,25,27z M21,23c-2.4,0-5.6-2.9-6-6c-0.4-3.1,1.6-6.1,4-6   s4.6,2.9,5,6.1C24.4,20.2,23,23,21,23z M20,38c-3.6,0-7-1.3-7-4c0-2.7,3.4-5,7-5c0.8,0,2,0,2,0c1,0,2.9,0.9,4,2c1,1,1,2.7,1,3   C27,37,25,38,20,38z" fill="#FFFFFF" id="g_1_"/></g></svg>